{
	"asset":{
		"generator":"Khronos glTF Blender I/O v3.5.30",
		"version":"2.0"
	},
	"scene":0,
	"scenes":[
		{
			"name":"Scene",
			"nodes":[
				0,
				1,
				2
			]
		}
	],
	"nodes":[
		{
			"mesh":0,
			"name":"Cube",
			"translation":[
				0,
				1.970483422279358,
				0
			]
		},
		{
			"mesh":1,
			"name":"Cube.001",
			"translation":[
				0,
				1.970483422279358,
				0
			]
		},
		{
			"mesh":2,
			"name":"Cube.002",
			"translation":[
				0,
				1.970483422279358,
				0
			]
		}
	],
	"materials":[
		{
			"doubleSided":true,
			"name":"Material",
			"pbrMetallicRoughness":{
				"baseColorFactor":[
					0.800000011920929,
					0.800000011920929,
					0.800000011920929,
					1
				],
				"metallicFactor":0,
				"roughnessFactor":0.5
			}
		}
	],
	"meshes":[
		{
			"name":"Cube",
			"primitives":[
				{
					"attributes":{
						"POSITION":0,
						"TEXCOORD_0":1,
						"NORMAL":2
					},
					"indices":3,
					"material":0
				}
			]
		},
		{
			"name":"Cube.001",
			"primitives":[
				{
					"attributes":{
						"POSITION":4,
						"TEXCOORD_0":5,
						"NORMAL":6
					},
					"indices":7,
					"material":0
				}
			]
		},
		{
			"name":"Cube.002",
			"primitives":[
				{
					"attributes":{
						"POSITION":8,
						"TEXCOORD_0":9,
						"NORMAL":10
					},
					"indices":11,
					"material":0
				}
			]
		}
	],
	"accessors":[
		{
			"bufferView":0,
			"componentType":5126,
			"count":1359,
			"max":[
				1.7344268560409546,
				1.7301570177078247,
				0.44248637557029724
			],
			"min":[
				-1.7344268560409546,
				-1.9696489572525024,
				-0.29849323630332947
			],
			"type":"VEC3"
		},
		{
			"bufferView":1,
			"componentType":5126,
			"count":1359,
			"type":"VEC2"
		},
		{
			"bufferView":2,
			"componentType":5126,
			"count":1359,
			"type":"VEC3"
		},
		{
			"bufferView":3,
			"componentType":5123,
			"count":6462,
			"type":"SCALAR"
		},
		{
			"bufferView":4,
			"componentType":5126,
			"count":416,
			"max":[
				0.9071308970451355,
				1.105846643447876,
				0.2513262629508972
			],
			"min":[
				-0.9071308970451355,
				-0.12406710535287857,
				-0.4067942798137665
			],
			"type":"VEC3"
		},
		{
			"bufferView":5,
			"componentType":5126,
			"count":416,
			"type":"VEC2"
		},
		{
			"bufferView":6,
			"componentType":5126,
			"count":416,
			"type":"VEC3"
		},
		{
			"bufferView":7,
			"componentType":5123,
			"count":1848,
			"type":"SCALAR"
		},
		{
			"bufferView":8,
			"componentType":5126,
			"count":245,
			"max":[
				0.2392638623714447,
				2.0360429286956787,
				0.2835395038127899
			],
			"min":[
				-0.2392638623714447,
				1.1352038383483887,
				-0.5867929458618164
			],
			"type":"VEC3"
		},
		{
			"bufferView":9,
			"componentType":5126,
			"count":245,
			"type":"VEC2"
		},
		{
			"bufferView":10,
			"componentType":5126,
			"count":245,
			"type":"VEC3"
		},
		{
			"bufferView":11,
			"componentType":5123,
			"count":1020,
			"type":"SCALAR"
		}
	],
	"bufferViews":[
		{
			"buffer":0,
			"byteLength":16308,
			"byteOffset":0,
			"target":34962
		},
		{
			"buffer":0,
			"byteLength":10872,
			"byteOffset":16308,
			"target":34962
		},
		{
			"buffer":0,
			"byteLength":16308,
			"byteOffset":27180,
			"target":34962
		},
		{
			"buffer":0,
			"byteLength":12924,
			"byteOffset":43488,
			"target":34963
		},
		{
			"buffer":0,
			"byteLength":4992,
			"byteOffset":56412,
			"target":34962
		},
		{
			"buffer":0,
			"byteLength":3328,
			"byteOffset":61404,
			"target":34962
		},
		{
			"buffer":0,
			"byteLength":4992,
			"byteOffset":64732,
			"target":34962
		},
		{
			"buffer":0,
			"byteLength":3696,
			"byteOffset":69724,
			"target":34963
		},
		{
			"buffer":0,
			"byteLength":2940,
			"byteOffset":73420,
			"target":34962
		},
		{
			"buffer":0,
			"byteLength":1960,
			"byteOffset":76360,
			"target":34962
		},
		{
			"buffer":0,
			"byteLength":2940,
			"byteOffset":78320,
			"target":34962
		},
		{
			"buffer":0,
			"byteLength":2040,
			"byteOffset":81260,
			"target":34963
		}
	],
	"buffers":[
		{
			"byteLength":83300,
			"uri":"data:application/octet-stream;base64,"
		}
	]
}
