{
	"asset":{
		"generator":"Khronos glTF Blender I/O v3.5.30",
		"version":"2.0"
	},
	"scene":0,
	"scenes":[
		{
			"name":"Scene",
			"nodes":[
				0
			]
		}
	],
	"nodes":[
		{
			"mesh":0,
			"name":"Character"
		}
	],
	"materials":[
		{
			"doubleSided":true,
			"name":"body",
			"pbrMetallicRoughness":{
				"baseColorFactor":[
					0.2266170084476471,
					0.2266170084476471,
					0.2266170084476471,
					1
				],
				"metallicFactor":0,
				"roughnessFactor":0.5
			}
		},
		{
			"doubleSided":true,
			"name":"jacket",
			"pbrMetallicRoughness":{
				"baseColorFactor":[
					0.1790742725133896,
					0.4487396478652954,
					0.18231059610843658,
					1
				],
				"metallicFactor":0,
				"roughnessFactor":0.5
			}
		},
		{
			"doubleSided":true,
			"name":"hair",
			"pbrMetallicRoughness":{
				"baseColorFactor":[
					0.8000000715255737,
					0.20090164244174957,
					0.07910873740911484,
					1
				],
				"metallicFactor":0,
				"roughnessFactor":0.5
			}
		},
		{
			"doubleSided":true,
			"name":"eyewhite",
			"pbrMetallicRoughness":{
				"baseColorFactor":[
					0.800000011920929,
					0.800000011920929,
					0.800000011920929,
					1
				],
				"metallicFactor":0,
				"roughnessFactor":0.5
			}
		},
		{
			"doubleSided":true,
			"name":"eyecolor",
			"pbrMetallicRoughness":{
				"baseColorFactor":[
					0.05185125395655632,
					0.19711710512638092,
					0.02952413260936737,
					1
				],
				"metallicFactor":0,
				"roughnessFactor":0.5
			}
		},
		{
			"doubleSided":true,
			"name":"eyeiris",
			"pbrMetallicRoughness":{
				"baseColorFactor":[
					0,
					0,
					0,
					1
				],
				"metallicFactor":0,
				"roughnessFactor":0.5
			}
		}
	],
	"meshes":[
		{
			"name":"Cube.009",
			"primitives":[
				{
					"attributes":{
						"POSITION":0,
						"TEXCOORD_0":1,
						"NORMAL":2
					},
					"indices":3,
					"material":0
				},
				{
					"attributes":{
						"POSITION":4,
						"TEXCOORD_0":5,
						"NORMAL":6
					},
					"indices":7,
					"material":1
				},
				{
					"attributes":{
						"POSITION":8,
						"TEXCOORD_0":9,
						"NORMAL":10
					},
					"indices":11,
					"material":2
				},
				{
					"attributes":{
						"POSITION":12,
						"TEXCOORD_0":13,
						"NORMAL":14
					},
					"indices":15,
					"material":3
				},
				{
					"attributes":{
						"POSITION":16,
						"TEXCOORD_0":17,
						"NORMAL":18
					},
					"indices":19,
					"material":4
				},
				{
					"attributes":{
						"POSITION":20,
						"TEXCOORD_0":21,
						"NORMAL":22
					},
					"indices":23,
					"material":5
				}
			]
		}
	],
	"accessors":[
		{
			"bufferView":0,
			"componentType":5126,
			"count":1592,
			"max":[
				1.7344268560409546,
				3.699921131134033,
				0.44248637557029724
			],
			"min":[
				-1.7344268560409546,
				0.0001150369644165039,
				-0.29849323630332947
			],
			"type":"VEC3"
		},
		{
			"bufferView":1,
			"componentType":5126,
			"count":1592,
			"type":"VEC2"
		},
		{
			"bufferView":2,
			"componentType":5126,
			"count":1592,
			"type":"VEC3"
		},
		{
			"bufferView":3,
			"componentType":5123,
			"count":7536,
			"type":"SCALAR"
		},
		{
			"bufferView":4,
			"componentType":5126,
			"count":447,
			"max":[
				0.9071308970451355,
				3.075610637664795,
				0.2513262629508972
			],
			"min":[
				-0.9071308970451355,
				1.8456969261169434,
				-0.4067942798137665
			],
			"type":"VEC3"
		},
		{
			"bufferView":5,
			"componentType":5126,
			"count":447,
			"type":"VEC2"
		},
		{
			"bufferView":6,
			"componentType":5126,
			"count":447,
			"type":"VEC3"
		},
		{
			"bufferView":7,
			"componentType":5123,
			"count":1848,
			"type":"SCALAR"
		},
		{
			"bufferView":8,
			"componentType":5126,
			"count":312,
			"max":[
				0.2392638623714447,
				4.005806922912598,
				0.2835395038127899
			],
			"min":[
				-0.2392638623714447,
				3.0954785346984863,
				-0.5867929458618164
			],
			"type":"VEC3"
		},
		{
			"bufferView":9,
			"componentType":5126,
			"count":312,
			"type":"VEC2"
		},
		{
			"bufferView":10,
			"componentType":5126,
			"count":312,
			"type":"VEC3"
		},
		{
			"bufferView":11,
			"componentType":5123,
			"count":1032,
			"type":"SCALAR"
		},
		{
			"bufferView":12,
			"componentType":5126,
			"count":140,
			"max":[
				0.1209767684340477,
				3.402773380279541,
				0.2271311730146408
			],
			"min":[
				-0.11821874976158142,
				3.296593189239502,
				0.12603402137756348
			],
			"type":"VEC3"
		},
		{
			"bufferView":13,
			"componentType":5126,
			"count":140,
			"type":"VEC2"
		},
		{
			"bufferView":14,
			"componentType":5126,
			"count":140,
			"type":"VEC3"
		},
		{
			"bufferView":15,
			"componentType":5123,
			"count":516,
			"type":"SCALAR"
		},
		{
			"bufferView":16,
			"componentType":5126,
			"count":32,
			"max":[
				0.10246222466230392,
				3.3660011291503906,
				0.2258101850748062
			],
			"min":[
				-0.10075170546770096,
				3.3229050636291504,
				0.2113785445690155
			],
			"type":"VEC3"
		},
		{
			"bufferView":17,
			"componentType":5126,
			"count":32,
			"type":"VEC2"
		},
		{
			"bufferView":18,
			"componentType":5126,
			"count":32,
			"type":"VEC3"
		},
		{
			"bufferView":19,
			"componentType":5123,
			"count":72,
			"type":"SCALAR"
		},
		{
			"bufferView":20,
			"componentType":5126,
			"count":14,
			"max":[
				0.09575946629047394,
				3.358034610748291,
				0.2258101850748062
			],
			"min":[
				-0.09272448718547821,
				3.3307180404663086,
				0.2158292531967163
			],
			"type":"VEC3"
		},
		{
			"bufferView":21,
			"componentType":5126,
			"count":14,
			"type":"VEC2"
		},
		{
			"bufferView":22,
			"componentType":5126,
			"count":14,
			"type":"VEC3"
		},
		{
			"bufferView":23,
			"componentType":5123,
			"count":36,
			"type":"SCALAR"
		}
	],
	"bufferViews":[
		{
			"buffer":0,
			"byteLength":19104,
			"byteOffset":0,
			"target":34962
		},
		{
			"buffer":0,
			"byteLength":12736,
			"byteOffset":19104,
			"target":34962
		},
		{
			"buffer":0,
			"byteLength":19104,
			"byteOffset":31840,
			"target":34962
		},
		{
			"buffer":0,
			"byteLength":15072,
			"byteOffset":50944,
			"target":34963
		},
		{
			"buffer":0,
			"byteLength":5364,
			"byteOffset":66016,
			"target":34962
		},
		{
			"buffer":0,
			"byteLength":3576,
			"byteOffset":71380,
			"target":34962
		},
		{
			"buffer":0,
			"byteLength":5364,
			"byteOffset":74956,
			"target":34962
		},
		{
			"buffer":0,
			"byteLength":3696,
			"byteOffset":80320,
			"target":34963
		},
		{
			"buffer":0,
			"byteLength":3744,
			"byteOffset":84016,
			"target":34962
		},
		{
			"buffer":0,
			"byteLength":2496,
			"byteOffset":87760,
			"target":34962
		},
		{
			"buffer":0,
			"byteLength":3744,
			"byteOffset":90256,
			"target":34962
		},
		{
			"buffer":0,
			"byteLength":2064,
			"byteOffset":94000,
			"target":34963
		},
		{
			"buffer":0,
			"byteLength":1680,
			"byteOffset":96064,
			"target":34962
		},
		{
			"buffer":0,
			"byteLength":1120,
			"byteOffset":97744,
			"target":34962
		},
		{
			"buffer":0,
			"byteLength":1680,
			"byteOffset":98864,
			"target":34962
		},
		{
			"buffer":0,
			"byteLength":1032,
			"byteOffset":100544,
			"target":34963
		},
		{
			"buffer":0,
			"byteLength":384,
			"byteOffset":101576,
			"target":34962
		},
		{
			"buffer":0,
			"byteLength":256,
			"byteOffset":101960,
			"target":34962
		},
		{
			"buffer":0,
			"byteLength":384,
			"byteOffset":102216,
			"target":34962
		},
		{
			"buffer":0,
			"byteLength":144,
			"byteOffset":102600,
			"target":34963
		},
		{
			"buffer":0,
			"byteLength":168,
			"byteOffset":102744,
			"target":34962
		},
		{
			"buffer":0,
			"byteLength":112,
			"byteOffset":102912,
			"target":34962
		},
		{
			"buffer":0,
			"byteLength":168,
			"byteOffset":103024,
			"target":34962
		},
		{
			"buffer":0,
			"byteLength":72,
			"byteOffset":103192,
			"target":34963
		}
	],
	"buffers":[
		{
			"byteLength":103264,
			"uri":"data:application/octet-stream;base64,"
		}
	]
}
