{
	"asset":{
		"generator":"Khronos glTF Blender I/O v3.5.30",
		"version":"2.0"
	},
	"scene":0,
	"scenes":[
		{
			"name":"Scene",
			"nodes":[
				0
			]
		}
	],
	"nodes":[
		{
			"mesh":0,
			"name":"Cube.001",
			"translation":[
				0,
				0.14112094044685364,
				0
			]
		}
	],
	"animations":[
		{
			"channels":[
				{
					"sampler":0,
					"target":{
						"node":0,
						"path":"translation"
					}
				},
				{
					"sampler":1,
					"target":{
						"node":0,
						"path":"rotation"
					}
				},
				{
					"sampler":2,
					"target":{
						"node":0,
						"path":"scale"
					}
				}
			],
			"name":"Cube.001",
			"samplers":[
				{
					"input":4,
					"interpolation":"LINEAR",
					"output":5
				},
				{
					"input":4,
					"interpolation":"LINEAR",
					"output":6
				},
				{
					"input":4,
					"interpolation":"LINEAR",
					"output":7
				}
			]
		}
	],
	"meshes":[
		{
			"name":"Cube.008",
			"primitives":[
				{
					"attributes":{
						"POSITION":0,
						"TEXCOORD_0":1,
						"NORMAL":2
					},
					"indices":3
				}
			]
		}
	],
	"accessors":[
		{
			"bufferView":0,
			"componentType":5126,
			"count":100,
			"max":[
				0.039314430207014084,
				0.12665840983390808,
				2.008549451828003
			],
			"min":[
				-0.039314430207014084,
				-0.12665840983390808,
				0
			],
			"type":"VEC3"
		},
		{
			"bufferView":1,
			"componentType":5126,
			"count":100,
			"type":"VEC2"
		},
		{
			"bufferView":2,
			"componentType":5126,
			"count":100,
			"type":"VEC3"
		},
		{
			"bufferView":3,
			"componentType":5123,
			"count":372,
			"type":"SCALAR"
		},
		{
			"bufferView":4,
			"componentType":5126,
			"count":241,
			"max":[
				10
			],
			"min":[
				0
			],
			"type":"SCALAR"
		},
		{
			"bufferView":5,
			"componentType":5126,
			"count":241,
			"type":"VEC3"
		},
		{
			"bufferView":6,
			"componentType":5126,
			"count":241,
			"type":"VEC4"
		},
		{
			"bufferView":7,
			"componentType":5126,
			"count":241,
			"type":"VEC3"
		}
	],
	"bufferViews":[
		{
			"buffer":0,
			"byteLength":1200,
			"byteOffset":0,
			"target":34962
		},
		{
			"buffer":0,
			"byteLength":800,
			"byteOffset":1200,
			"target":34962
		},
		{
			"buffer":0,
			"byteLength":1200,
			"byteOffset":2000,
			"target":34962
		},
		{
			"buffer":0,
			"byteLength":744,
			"byteOffset":3200,
			"target":34963
		},
		{
			"buffer":0,
			"byteLength":964,
			"byteOffset":3944
		},
		{
			"buffer":0,
			"byteLength":2892,
			"byteOffset":4908
		},
		{
			"buffer":0,
			"byteLength":3856,
			"byteOffset":7800
		},
		{
			"buffer":0,
			"byteLength":2892,
			"byteOffset":11656
		}
	],
	"buffers":[
		{
			"byteLength":14548,
			"uri":"data:application/octet-stream;base64,"
		}
	]
}
